<svg version="1.0" xmlns="http://www.w3.org/2000/svg" width="665.33333" height="665.33333" viewBox="0 0 499 499"><path d="M2055 2941c-131-15-204-96-213-239-3-42-10-75-16-77s-29-6-50-10c-59-10-96-54-96-114 0-78 48-130 121-131h36l5-77c7-111 48-181 130-224 35-18 65-19 518-19 524 0 522 0 583 58 46 44 68 97 75 184l7 80 41 3c23 2 50 9 61 16 50 31 68 111 38 169-18 35-41 49-98 58l-42 8-8 78c-9 89-32 141-79 181-71 60-65 59-528 61-234 1-452-1-485-5zm947-104c62-48 68-76 68-345 0-227-1-240-22-282-17-33-35-51-68-67-44-23-47-23-490-23-442 0-445 0-485 23-26 14-48 37-62 67-22 42-23 55-23 290s1 247 23 285c14 26 37 48 67 63l45 23 455-3 455-3 37-28z" transform="matrix(.1 0 0 -.1 0 499)"/><path d="M2154 2604c-69-34-86-128-34-188 40-45 77-53 133-28 37 16 47 28 62 65 16 43 16 46-4 91-15 35-29 50-55 61-44 19-63 18-102-1zM2724 2601c-20-12-38-36-49-64-16-43-16-46 4-91 15-36 29-50 58-62 77-33 163 26 163 112 0 91-102 152-176 105z" transform="matrix(.1 0 0 -.1 0 499)"/></svg>